<svg xmlns="http://www.w3.org/2000/svg" viewBox="0 0 700 380" width="700" height="380">
<style>
  text { font-family: 'Courier New', Courier, monospace; font-weight: bold; }
</style>

<!-- ═══ EARS ═══ -->
<text x="148" y="42"  font-size="32" fill="#FF6EC7">▄██▄</text>
<text x="148" y="42"  font-size="32" fill="#FF9EDA" opacity="0.6">▄██▄</text>
<text x="380" y="42"  font-size="32" fill="#FF6EC7">▄██▄</text>

<!-- inner ear pink -->
<text x="158" y="44"  font-size="22" fill="#FF3DAE">▲</text>
<text x="390" y="44"  font-size="22" fill="#FF3DAE">▲</text>

<!-- ═══ TOP OF HEAD ═══ -->
<text x="100" y="74"  font-size="32" fill="#A78BFA">╔</text>
<text x="120" y="74"  font-size="32" fill="#C4B5FD">══════════════════</text>
<text x="555" y="74"  font-size="32" fill="#A78BFA">╗</text>

<!-- ═══ ROW 1: spacer ═══ -->
<text x="100" y="108" font-size="32" fill="#A78BFA">║</text>
<text x="555" y="108" font-size="32" fill="#A78BFA">║</text>

<!-- ═══ ROW 2: EYES ═══ -->
<text x="100" y="142" font-size="32" fill="#A78BFA">║</text>
<text x="135" y="142" font-size="32" fill="#FDE68A">  ◉</text>
<text x="300" y="142" font-size="30" fill="#38BDF8">✦</text>
<text x="430" y="142" font-size="32" fill="#FDE68A">◉  </text>
<text x="555" y="142" font-size="32" fill="#A78BFA">║</text>

<!-- ═══ ROW 3: BLUSH + NOSE ═══ -->
<text x="100" y="176" font-size="32" fill="#A78BFA">║</text>
<text x="130" y="176" font-size="26" fill="#FCA5A5"> ꒰ ˘ ³˘꒱</text>
<text x="300" y="176" font-size="32" fill="#F9A8D4">▽</text>
<text x="380" y="176" font-size="26" fill="#FCA5A5">꒰ ˘ ³˘꒱</text>
<text x="555" y="176" font-size="32" fill="#A78BFA">║</text>

<!-- ═══ ROW 4: WHISKERS ═══ -->
<text x="100" y="210" font-size="32" fill="#A78BFA">║</text>
<text x="120" y="210" font-size="28" fill="#7DD3FC">  ─── </text>
<text x="280" y="210" font-size="32" fill="#F9A8D4">ω</text>
<text x="320" y="210" font-size="28" fill="#7DD3FC"> ───  </text>
<text x="555" y="210" font-size="32" fill="#A78BFA">║</text>

<!-- ═══ ROW 5: spacer ═══ -->
<text x="100" y="244" font-size="32" fill="#A78BFA">║</text>
<text x="555" y="244" font-size="32" fill="#A78BFA">║</text>

<!-- ═══ BOTTOM OF HEAD ═══ -->
<text x="100" y="278" font-size="32" fill="#A78BFA">╚</text>
<text x="120" y="278" font-size="32" fill="#C4B5FD">══════════════════</text>
<text x="555" y="278" font-size="32" fill="#A78BFA">╝</text>

<!-- ═══ PAWS ═══ -->
<text x="148" y="316" font-size="32" fill="#FF9EDA">╭──╮</text>
<text x="400" y="316" font-size="32" fill="#FF9EDA">╭──╮</text>

<!-- ═══ TAIL ═══ -->
<text x="560" y="278" font-size="32" fill="#C4B5FD"> ╭─</text>
<text x="560" y="316" font-size="32" fill="#C4B5FD"> ╰─╯</text>

<!-- ═══ LABEL ═══ -->
<text x="350" y="358" font-size="16" fill="#F9A8D4" text-anchor="middle" font-style="italic">✦  terminal neko  ·  purring at 100% cpu  ✦</text>
</svg>
